<?xml version="1.0" encoding="UTF-8"?>
<svg version="1.1" xmlns="http://www.w3.org/2000/svg" width="1024" height="1024">
<path d="M0 0 C1.62294898 1.34123963 3.25933443 2.66214108 4.90673828 3.97314453 C10.15896104 8.17346176 14.9954462 12.5547782 19.68408203 17.37548828 C21.54321488 19.23462113 23.44469659 20.91608342 25.46533203 22.59423828 C54.40748689 47.50865787 77.3613522 82.07948231 95.53173828 115.20751953 C96.62531648 117.19241538 97.74206935 119.16092732 98.87158203 121.12548828 C140.73825558 195.93642954 151.0897859 287.60632798 129.90869141 404.55078125 C123.77619734 426.07007335 116.42850569 447.26509949 106.77783203 467.46923828 C106.42769043 468.20432617 106.07754883 468.93941406 105.71679688 469.69677734 C103.80124016 473.6817949 101.81777304 477.62643675 99.77539062 481.54785156 C98.73841828 483.54515268 97.7208189 485.55165112 96.70361328 487.55908203 C84.73862471 510.92938896 69.63918151 532.39620319 52.77783203 552.46923828 C52.24061523 553.11086914 51.70339844 553.7525 51.14990234 554.41357422 C46.08199992 560.45029525 41.0199184 566.44485139 35.33251953 571.91455078 C33.64239161 573.6046787 32.12682072 575.38868477 30.59033203 577.21923828 C26.22643081 582.27628712 21.25441767 586.65427207 16.2890625 591.10205078 C14.89534006 592.36293053 13.52486466 593.64938043 12.15673828 594.93798828 C4.81812417 601.81863713 -3.04841442 607.87401002 -11.10400391 613.88623047 C-13.06974702 615.35532663 -15.02564449 616.83658713 -16.97998047 618.32080078 C-36.92276836 633.34571061 -58.71312759 645.72593333 -81.22216797 656.46923828 C-81.96096191 656.8234082 -82.69975586 657.17757812 -83.4609375 657.54248047 C-170.34566946 698.84325719 -274.05387916 705.12153705 -384.00241089 669.74638367 C-393.96853992 666.16135717 -403.66670943 662.03348192 -413.22216797 657.46923828 C-413.95725586 657.11909668 -414.69234375 656.76895508 -415.44970703 656.40820312 C-419.43472458 654.49264641 -423.37936644 652.50917929 -427.30078125 650.46679688 C-429.29808237 649.42982453 -431.3045808 648.41222515 -433.31201172 647.39501953 C-463.05389751 632.16634448 -490.25843842 611.75981164 -514.60351562 588.97021484 C-516.16386641 587.52330132 -517.74092794 586.09808576 -519.32763672 584.68017578 C-526.4272211 578.32136797 -532.88012852 571.5788468 -539.22216797 564.46923828 C-539.98142578 563.64810547 -540.74068359 562.82697266 -541.52294922 561.98095703 C-566.54149578 534.82939052 -586.36612119 502.69033726 -602.22216797 469.46923828 C-602.75342285 468.36104736 -602.75342285 468.36104736 -603.29541016 467.23046875 C-627.61810448 416.0626471 -639.4862568 359.63736406 -639.40966797 303.09423828 C-639.40906372 302.26330658 -639.40845947 301.43237488 -639.40783691 300.57626343 C-639.23201933 211.00899834 -608.01170194 123.15211459 -550.69580078 54.25146484 C-549.34241063 52.61466098 -548.00816512 50.96494275 -546.68310547 49.30517578 C-542.79943514 44.46059732 -538.84599183 39.8900667 -534.33935547 35.61376953 C-532.45773709 33.70784981 -530.72983261 31.75128822 -528.98779297 29.71923828 C-525.26075799 25.42943587 -521.25430445 21.52613908 -517.09716797 17.65673828 C-515.97858398 16.61199341 -515.97858398 16.61199341 -514.83740234 15.54614258 C-508.47056201 9.63553791 -501.99463161 3.91052901 -495.22216797 -1.53076172 C-494.62065918 -2.01544922 -494.01915039 -2.50013672 -493.39941406 -2.99951172 C-475.27572905 -17.48737208 -455.8163797 -30.13250568 -435.48388672 -41.28466797 C-433.49899087 -42.37824617 -431.53047893 -43.49499904 -429.56591797 -44.62451172 C-349.94196268 -89.18470688 -251.56583097 -98.11179162 0 0 Z " fill="#E00034" transform="translate(760.22216796875,209.53076171875)"/>
<path d="M0 0 C182.3 0 182.3 0 213 27 C213.75023437 27.65484375 214.50046875 28.3096875 215.2734375 28.984375 C232.44318105 45.00946898 242.00935338 68.62196833 243.14038086 91.88769531 C243.57562375 106.12371968 243.4416123 119.39847248 239 133 C238.63777344 134.14210938 238.27554688 135.28421875 237.90234375 136.4609375 C230.16537742 158.54407531 213.68496625 175.5046723 193 186 C181.53535354 191 181.53535354 191 177 191 C184.58087495 204.21873869 192.20846489 217.40416115 200 230.5 C205.91019952 240.4364243 211.73293704 250.41904813 217.49609375 260.44140625 C221.63760084 267.64326911 225.80760687 274.82765005 230 282 C231.71962353 284.94662084 233.43859014 287.89362363 235.15722656 290.84082031 C236.46045317 293.07502172 237.76451589 295.30872213 239.06933594 297.54199219 C240.83443263 300.56414181 242.59471168 303.58905611 244.35205078 306.61572266 C245.35802677 308.34580928 246.36842969 310.07331937 247.37890625 311.80078125 C247.98347656 312.84363281 248.58804688 313.88648438 249.2109375 314.9609375 C249.75024902 315.88696777 250.28956055 316.81299805 250.84521484 317.76708984 C252 320 252 320 252 322 C243.24791379 322.55971722 234.50207961 322.98410291 225.73592186 323.24349213 C221.6628447 323.36811722 217.60209798 323.53633277 213.53613281 323.81054688 C187.42744787 325.52516416 187.42744787 325.52516416 180.22113037 319.78744507 C175.52353462 314.13014229 172.71380822 307.75730666 170.13275146 300.92108154 C168.67999019 297.17477507 166.83168151 293.93580221 164.7734375 290.48828125 C163.63827185 288.43098415 162.50539175 286.372424 161.375 284.3125 C155.55238548 273.77206701 149.63506394 263.29228112 143.63671875 252.85107422 C140.77471512 247.86562099 137.92140428 242.87519647 135.068573 237.88449097 C134.11995094 236.22547423 133.17047652 234.56694494 132.22094727 232.90844727 C125.77072992 221.62960377 119.3936114 210.31177402 113 199 C94.85 198.67 76.7 198.34 58 198 C58 238.92 58 279.84 58 322 C38.86 322 19.72 322 0 322 C0 215.74 0 109.48 0 0 Z " fill="#FEFDFD" transform="translate(309,351)"/>
<path d="M0 0 C1.09920273 0.00222061 2.19840546 0.00444122 3.33091736 0.00672913 C4.57212845 0.00680466 5.81333954 0.00688019 7.09216309 0.00695801 C8.45682311 0.01206541 9.82148274 0.01728142 11.18614197 0.02259827 C12.57476755 0.02446251 13.96339379 0.02588638 15.35202026 0.02688599 C19.01319686 0.03071065 22.67433402 0.04054048 26.335495 0.05158997 C30.06890835 0.06180519 33.80232805 0.06638384 37.53575134 0.07142639 C44.86584748 0.08216281 52.19591108 0.0992386 59.52598572 0.12025452 C59.59454278 31.69641668 59.64757614 63.27255752 59.67918171 94.84877682 C59.68293346 98.58347524 59.68681647 102.31817351 59.69078064 106.0528717 C59.69156757 106.79632843 59.6923545 107.53978516 59.69316528 108.30577087 C59.70619049 120.31625755 59.72982829 132.3267008 59.75744411 144.33716178 C59.78557886 156.67697174 59.80217897 169.01675909 59.8082512 181.35659981 C59.81235098 188.96027051 59.8252614 196.5638184 59.84973512 204.16745126 C59.86758868 210.01504292 59.86933111 215.8625573 59.86530876 221.71017075 C59.86612929 224.09649279 59.87203201 226.48281979 59.88360214 228.86911392 C59.99069198 252.10985409 57.61553866 272.782265 43.52598572 292.12025452 C43.01680603 292.8253717 42.50762634 293.53048889 41.98301697 294.25697327 C28.60625465 311.06875603 6.63541346 317.1661765 -13.47401428 321.12025452 C-14.72569397 321.36775452 -15.97737366 321.61525452 -17.26698303 321.87025452 C-37.86638807 325.22202212 -61.04731031 324.20559531 -81.47401428 320.12025452 C-81.47401428 301.64025452 -81.47401428 283.16025452 -81.47401428 264.12025452 C-65.34901428 264.24525452 -65.34901428 264.24525452 -60.3563385 264.3004303 C-45.76499482 264.39517579 -27.89337101 264.39022159 -16.47401428 253.93275452 C-6.51184076 242.49105027 -4.32771779 226.58119005 -4.32252502 211.93315125 C-4.31829261 211.02949432 -4.3140602 210.12583739 -4.30969954 209.19479692 C-4.2967234 206.178574 -4.2906605 203.16237748 -4.28456116 200.14613342 C-4.27661514 197.97926168 -4.2682269 195.81239152 -4.25942993 193.64552307 C-4.24140064 188.98622219 -4.22637556 184.32692472 -4.21365356 179.66760635 C-4.19341837 172.30726629 -4.16577073 164.94696555 -4.13697815 157.58665466 C-4.07182287 140.64255352 -4.01628324 123.69842343 -3.96099091 106.75428772 C-3.91018663 91.20847533 -3.85737185 75.66267733 -3.7964654 60.1169008 C-3.76805219 52.79212762 -3.74448058 45.46735927 -3.72454071 38.14255834 C-3.71119885 33.59956726 -3.6937851 29.05659859 -3.67523003 24.5136261 C-3.66744407 22.39837075 -3.6613877 20.28310827 -3.65713692 18.16784286 C-3.65113262 15.29367531 -3.63910589 12.41959603 -3.62550354 9.54545593 C-3.62520755 8.69713499 -3.62491157 7.84881404 -3.62460661 6.9747864 C-3.58136684 0.17407965 -3.58136684 0.17407965 0 0 Z " fill="#FEFDFD" transform="translate(655.4740142822266,350.87974548339844)"/>
<path d="M0 0 C16.7990625 -0.061875 16.7990625 -0.061875 33.9375 -0.125 C37.43722412 -0.14320801 40.93694824 -0.16141602 44.54272461 -0.18017578 C48.90930176 -0.18920898 48.90930176 -0.18920898 50.97145081 -0.19088745 C52.37238344 -0.19390278 53.77331184 -0.20081592 55.17420959 -0.21115112 C63.20438475 -0.26728684 71.10707678 -0.03298924 79.09204102 0.87158203 C79.77455146 0.94719801 80.4570619 1.02281399 81.16025448 1.10072136 C93.71137713 2.67441625 105.75865246 7.4987709 113.875 17.4375 C122.56787681 29.46298085 123.17170052 43.66424419 122 58 C119.95571947 69.40615613 115.05158395 79.68982597 105.4609375 86.4765625 C89.68829202 96.24058113 71.77999711 98.16403663 53.61328125 98.1328125 C52.22421756 98.13348734 50.83515399 98.13445887 49.4460907 98.13571167 C46.54892847 98.13717868 43.65179727 98.13506533 40.75463867 98.13037109 C37.04930069 98.12465833 33.34403491 98.12796889 29.63869953 98.13394356 C26.775909 98.13756249 23.91313552 98.13640473 21.05034447 98.13381577 C19.68405333 98.13315102 18.31776063 98.13395905 16.95147133 98.13629532 C15.04227352 98.13884549 13.13307025 98.13426705 11.22387695 98.12939453 C10.13992142 98.12859894 9.05596588 98.12780334 7.93916321 98.12698364 C5 98 5 98 0 97 C0 64.99 0 32.98 0 0 Z " fill="#E00034" transform="translate(367,404)"/>
</svg>
