<?xml version="1.0" encoding="UTF-8"?>
<svg version="1.1" xmlns="http://www.w3.org/2000/svg" width="782" height="782">
<path d="M0 0 C258.06 0 516.12 0 782 0 C782 258.06 782 516.12 782 782 C523.94 782 265.88 782 0 782 C0 523.94 0 265.88 0 0 Z " fill="#E00034" transform="translate(0,0)"/>
<path d="M0 0 C183.52631579 0 183.52631579 0 213 27 C213.7425 27.65097656 214.485 28.30195313 215.25 28.97265625 C232.45405102 44.95211336 242.01034011 68.64226567 243.14038086 91.88769531 C243.57562375 106.12371968 243.4416123 119.39847248 239 133 C238.63777344 134.14210938 238.27554688 135.28421875 237.90234375 136.4609375 C230.16537742 158.54407531 213.68496625 175.5046723 193 186 C181.53535354 191 181.53535354 191 177 191 C184.58087495 204.21873869 192.20846489 217.40416115 200 230.5 C205.91019952 240.4364243 211.73293704 250.41904813 217.49609375 260.44140625 C221.63760084 267.64326911 225.80760687 274.82765005 230 282 C231.71962353 284.94662084 233.43859014 287.89362363 235.15722656 290.84082031 C236.46045317 293.07502172 237.76451589 295.30872213 239.06933594 297.54199219 C240.83443263 300.56414181 242.59471168 303.58905611 244.35205078 306.61572266 C245.35802677 308.34580928 246.36842969 310.07331937 247.37890625 311.80078125 C247.98347656 312.84363281 248.58804688 313.88648438 249.2109375 314.9609375 C249.75024902 315.88696777 250.28956055 316.81299805 250.84521484 317.76708984 C252 320 252 320 252 322 C243.24791379 322.55971722 234.50207961 322.98410291 225.73592186 323.24349213 C221.6628447 323.36811722 217.60209798 323.53633277 213.53613281 323.81054688 C187.42744787 325.52516416 187.42744787 325.52516416 180.22113037 319.78744507 C175.52353462 314.13014229 172.71380822 307.75730666 170.13275146 300.92108154 C168.67999019 297.17477507 166.83168151 293.93580221 164.7734375 290.48828125 C163.63827185 288.43098415 162.50539175 286.372424 161.375 284.3125 C155.55238548 273.77206701 149.63506394 263.29228112 143.63671875 252.85107422 C140.77471512 247.86562099 137.92140428 242.87519647 135.068573 237.88449097 C134.11995094 236.22547423 133.17047652 234.56694494 132.22094727 232.90844727 C125.77072992 221.62960377 119.3936114 210.31177402 113 199 C94.85 198.67 76.7 198.34 58 198 C58 238.92 58 279.84 58 322 C38.86 322 19.72 322 0 322 C0 215.74 0 109.48 0 0 Z " fill="#FEFDFD" transform="translate(188,230)"/>
<path d="M0 0 C1.09920273 0.00222061 2.19840546 0.00444122 3.33091736 0.00672913 C4.57212845 0.00680466 5.81333954 0.00688019 7.09216309 0.00695801 C8.45682311 0.01206541 9.82148274 0.01728142 11.18614197 0.02259827 C12.57476755 0.02446251 13.96339379 0.02588638 15.35202026 0.02688599 C19.01319686 0.03071065 22.67433402 0.04054048 26.335495 0.05158997 C30.06890835 0.06180519 33.80232805 0.06638384 37.53575134 0.07142639 C44.86584748 0.08216281 52.19591108 0.0992386 59.52598572 0.12025452 C59.59454278 31.69641668 59.64757614 63.27255752 59.67918171 94.84877682 C59.68293346 98.58347524 59.68681647 102.31817351 59.69078064 106.0528717 C59.69156757 106.79632843 59.6923545 107.53978516 59.69316528 108.30577087 C59.70619049 120.31625755 59.72982829 132.3267008 59.75744411 144.33716178 C59.78557886 156.67697174 59.80217897 169.01675909 59.8082512 181.35659981 C59.81235098 188.96027051 59.8252614 196.5638184 59.84973512 204.16745126 C59.86758868 210.01504292 59.86933111 215.8625573 59.86530876 221.71017075 C59.86612929 224.09649279 59.87203201 226.48281979 59.88360214 228.86911392 C59.99069198 252.10985409 57.61553866 272.782265 43.52598572 292.12025452 C43.01680603 292.8253717 42.50762634 293.53048889 41.98301697 294.25697327 C28.60625465 311.06875603 6.63541346 317.1661765 -13.47401428 321.12025452 C-14.72569397 321.36775452 -15.97737366 321.61525452 -17.26698303 321.87025452 C-37.86638807 325.22202212 -61.04731031 324.20559531 -81.47401428 320.12025452 C-81.47401428 301.64025452 -81.47401428 283.16025452 -81.47401428 264.12025452 C-65.34901428 264.24525452 -65.34901428 264.24525452 -60.3563385 264.3004303 C-45.76499482 264.39517579 -27.89337101 264.39022159 -16.47401428 253.93275452 C-6.51184076 242.49105027 -4.32771779 226.58119005 -4.32252502 211.93315125 C-4.31829261 211.02949432 -4.3140602 210.12583739 -4.30969954 209.19479692 C-4.2967234 206.178574 -4.2906605 203.16237748 -4.28456116 200.14613342 C-4.27661514 197.97926168 -4.2682269 195.81239152 -4.25942993 193.64552307 C-4.24140064 188.98622219 -4.22637556 184.32692472 -4.21365356 179.66760635 C-4.19341837 172.30726629 -4.16577073 164.94696555 -4.13697815 157.58665466 C-4.07182287 140.64255352 -4.01628324 123.69842343 -3.96099091 106.75428772 C-3.91018663 91.20847533 -3.85737185 75.66267733 -3.7964654 60.1169008 C-3.76805219 52.79212762 -3.74448058 45.46735927 -3.72454071 38.14255834 C-3.71119885 33.59956726 -3.6937851 29.05659859 -3.67523003 24.5136261 C-3.66744407 22.39837075 -3.6613877 20.28310827 -3.65713692 18.16784286 C-3.65113262 15.29367531 -3.63910589 12.41959603 -3.62550354 9.54545593 C-3.62520755 8.69713499 -3.62491157 7.84881404 -3.62460661 6.9747864 C-3.58136684 0.17407965 -3.58136684 0.17407965 0 0 Z " fill="#FEFDFD" transform="translate(534.4740142822266,229.87974548339844)"/>
<path d="M0 0 C16.7990625 -0.061875 16.7990625 -0.061875 33.9375 -0.125 C37.43722412 -0.14320801 40.93694824 -0.16141602 44.54272461 -0.18017578 C48.90930176 -0.18920898 48.90930176 -0.18920898 50.97145081 -0.19088745 C52.37238344 -0.19390278 53.77331184 -0.20081592 55.17420959 -0.21115112 C63.20438475 -0.26728684 71.10707678 -0.03298924 79.09204102 0.87158203 C79.77455146 0.94719801 80.4570619 1.02281399 81.16025448 1.10072136 C93.71137713 2.67441625 105.75865246 7.4987709 113.875 17.4375 C122.56787681 29.46298085 123.17170052 43.66424419 122 58 C119.95571947 69.40615613 115.05158395 79.68982597 105.4609375 86.4765625 C89.68829202 96.24058113 71.77999711 98.16403663 53.61328125 98.1328125 C52.22421756 98.13348734 50.83515399 98.13445887 49.4460907 98.13571167 C46.54892847 98.13717868 43.65179727 98.13506533 40.75463867 98.13037109 C37.04930069 98.12465833 33.34403491 98.12796889 29.63869953 98.13394356 C26.775909 98.13756249 23.91313552 98.13640473 21.05034447 98.13381577 C19.68405333 98.13315102 18.31776063 98.13395905 16.95147133 98.13629532 C15.04227352 98.13884549 13.13307025 98.13426705 11.22387695 98.12939453 C10.13992142 98.12859894 9.05596588 98.12780334 7.93916321 98.12698364 C5 98 5 98 0 97 C0 64.99 0 32.98 0 0 Z " fill="#E00034" transform="translate(246,283)"/>
</svg>
